<svg width="62" height="73" viewBox="0 0 62 73" fill="none" xmlns="http://www.w3.org/2000/svg">
<ellipse cx="31" cy="35.5" rx="31" ry="31.5" fill="#51A4B5"/>
<path d="M29.44 26.48C29.76 26.3467 30.08 26.24 30.4 26.16C30.7467 26.08 30.9867 26.04 31.12 26.04C31.3333 26.04 31.4667 26.08 31.52 26.16C31.6 26.24 31.64 26.28 31.64 26.28V34.28H39.6C39.84 34.28 39.96 34.44 39.96 34.76C39.96 35.08 39.8933 35.4133 39.76 35.76C39.6267 36.08 39.48 36.32 39.32 36.48H31.64V44.36C31.4 44.5467 31.1067 44.6667 30.76 44.72C30.44 44.7733 30.1733 44.8 29.96 44.8C29.6133 44.8 29.44 44.68 29.44 44.44V36.48H21.44C21.44 36.48 21.4 36.4667 21.32 36.44C21.24 36.3867 21.2 36.2667 21.2 36.08C21.2 36 21.2533 35.72 21.36 35.24C21.4667 34.76 21.6133 34.44 21.8 34.28H29.44V26.48Z" fill="white"/>
</svg>
